<svg width="19" height="18" viewBox="0 0 19 18" fill="none" xmlns="http://www.w3.org/2000/svg">
<g clip-path="url(#clip0_18_75)">
<path d="M17.0004 1.6875H14.5625V0.5625C14.5625 0.251438 14.3111 0 14 0C13.6889 0 13.4375 0.251438 13.4375 0.5625V1.6875H10.0625V0.5625C10.0625 0.251438 9.8105 0 9.5 0C9.1895 0 8.9375 0.251438 8.9375 0.5625V1.6875H5.5625V0.5625C5.5625 0.251438 5.3105 0 5 0C4.6895 0 4.4375 0.251438 4.4375 0.5625V1.6875H2.00019C1.17163 1.6875 0.5 2.35856 0.5 3.18712V16.4998C0.5 17.3284 1.17163 18 2.00019 18H17.0004C17.8289 18 18.5 17.3284 18.5 16.4998V3.18712C18.5 2.35856 17.8289 1.6875 17.0004 1.6875ZM17.375 16.4998C17.375 16.7068 17.2068 16.875 17.0004 16.875H2.00019C1.79319 16.875 1.625 16.7068 1.625 16.4998V3.18712C1.625 2.98069 1.79319 2.8125 2.00019 2.8125H4.4375V3.9375C4.4375 4.24856 4.6895 4.5 5 4.5C5.3105 4.5 5.5625 4.24856 5.5625 3.9375V2.8125H8.9375V3.9375C8.9375 4.24856 9.1895 4.5 9.5 4.5C9.8105 4.5 10.0625 4.24856 10.0625 3.9375V2.8125H13.4375V3.9375C13.4375 4.24856 13.6889 4.5 14 4.5C14.3111 4.5 14.5625 4.24856 14.5625 3.9375V2.8125H17.0004C17.2068 2.8125 17.375 2.98069 17.375 3.18712V16.4998Z" fill="white"/>
<path d="M6.6875 6.75H4.4375V8.4375H6.6875V6.75Z" fill="white"/>
<path d="M6.6875 9.5625H4.4375V11.25H6.6875V9.5625Z" fill="white"/>
<path d="M6.6875 12.375H4.4375V14.0625H6.6875V12.375Z" fill="white"/>
<path d="M10.625 12.375H8.375V14.0625H10.625V12.375Z" fill="white"/>
<path d="M10.625 9.5625H8.375V11.25H10.625V9.5625Z" fill="white"/>
<path d="M10.625 6.75H8.375V8.4375H10.625V6.75Z" fill="white"/>
<path d="M14.5625 12.375H12.3125V14.0625H14.5625V12.375Z" fill="white"/>
<path d="M14.5625 9.5625H12.3125V11.25H14.5625V9.5625Z" fill="white"/>
<path d="M14.5625 6.75H12.3125V8.4375H14.5625V6.75Z" fill="white"/>
</g>
<defs>
<clipPath id="clip0_18_75">
<rect width="18" height="18" fill="white" transform="translate(0.5)"/>
</clipPath>
</defs>
</svg>
