<svg width="18" height="18" viewBox="0 0 18 18" fill="none" xmlns="http://www.w3.org/2000/svg">
<path d="M10.9221 4.05809C11.6688 4.20378 12.3551 4.56898 12.8931 5.10696C13.4311 5.64494 13.7963 6.33121 13.942 7.07795M10.9221 1C12.4735 1.17235 13.9203 1.8671 15.0247 2.97018C16.1292 4.07326 16.8258 5.5191 17.0001 7.0703M16.2355 13.1712V15.4648C16.2364 15.6777 16.1928 15.8884 16.1075 16.0835C16.0222 16.2786 15.8971 16.4537 15.7402 16.5977C15.5833 16.7416 15.3981 16.8512 15.1964 16.9194C14.9947 16.9876 14.7809 17.013 14.5689 16.9938C12.2163 16.7382 9.95652 15.9343 7.97106 14.6467C6.12384 13.4729 4.55772 11.9068 3.38393 10.0596C2.09187 8.0651 1.28779 5.79431 1.03685 3.43118C1.01774 3.21976 1.04287 3.00669 1.11062 2.80551C1.17838 2.60434 1.28728 2.41948 1.43039 2.2627C1.57351 2.10592 1.7477 1.98066 1.94188 1.89489C2.13606 1.80912 2.34597 1.76472 2.55824 1.76452H4.85181C5.22284 1.76087 5.58253 1.89226 5.86385 2.13419C6.14517 2.37613 6.32892 2.71211 6.38085 3.0795C6.47766 3.81349 6.65719 4.53418 6.91602 5.22781C7.01888 5.50145 7.04114 5.79884 6.98017 6.08474C6.91919 6.37065 6.77753 6.63308 6.57198 6.84095L5.60104 7.81189C6.68938 9.7259 8.27416 11.3107 10.1882 12.399L11.1591 11.4281C11.367 11.2225 11.6294 11.0809 11.9153 11.0199C12.2012 10.9589 12.4986 10.9812 12.7723 11.084C13.4659 11.3429 14.1866 11.5224 14.9206 11.6192C15.2919 11.6716 15.6311 11.8587 15.8736 12.1448C16.116 12.431 16.2448 12.7962 16.2355 13.1712Z" stroke="white" stroke-width="2" stroke-linecap="round" stroke-linejoin="round"/>
</svg>
