<svg width="10" height="10" viewBox="0 0 10 10" fill="none" xmlns="http://www.w3.org/2000/svg">
<path d="M9.7314 8.31597L6.41538 4.99995L9.7314 1.68394C10.0894 1.32593 10.0894 0.749561 9.7314 0.391553C9.37339 0.0335449 8.79702 0.0335449 8.43901 0.391553L5.123 3.70757L1.80698 0.391553C1.44897 0.0335449 0.872607 0.0335449 0.5146 0.391553C0.156592 0.749561 0.156592 1.32593 0.5146 1.68394L3.83062 4.99995L0.5146 8.31597C0.156592 8.67397 0.156592 9.25034 0.5146 9.60835C0.872607 9.96636 1.44897 9.96636 1.80698 9.60835L5.123 6.29233L8.43901 9.60835C8.79702 9.96636 9.37339 9.96636 9.7314 9.60835C10.0869 9.25034 10.0869 8.67144 9.7314 8.31597Z" fill="#7E8288"/>
</svg>
