<svg width="14" height="14" viewBox="0 0 14 14" fill="none" xmlns="http://www.w3.org/2000/svg">
<path d="M11.963 10.5712L8.39189 7.0001L11.963 3.429C12.3485 3.04346 12.3485 2.42275 11.963 2.03721C11.5774 1.65166 10.9567 1.65166 10.5712 2.03721L7.0001 5.6083L3.429 2.03721C3.04346 1.65166 2.42275 1.65166 2.03721 2.03721C1.65166 2.42275 1.65166 3.04346 2.03721 3.429L5.6083 7.0001L2.03721 10.5712C1.65166 10.9567 1.65166 11.5774 2.03721 11.963C2.42275 12.3485 3.04346 12.3485 3.429 11.963L7.0001 8.39189L10.5712 11.963C10.9567 12.3485 11.5774 12.3485 11.963 11.963C12.3458 11.5774 12.3458 10.954 11.963 10.5712Z" fill="#D9D9D9"/>
</svg>
