<svg width="32" height="32" viewBox="0 0 32 32" fill="none" xmlns="http://www.w3.org/2000/svg">
<circle cx="16" cy="16" r="16" fill="#9ED0B9"/>
<path d="M23.1996 11.0547C23.1996 9.8568 22.1426 8.7998 20.9447 8.7998H11.8545C10.6566 8.7998 9.59961 9.8568 9.59961 11.0547V20.1449C9.59961 21.3428 10.6566 22.3998 11.8545 22.3998H16.4348V17.2558H14.7437V15.0008H16.4348V14.0848C16.4348 12.5345 17.5623 11.1957 18.9716 11.1957H20.8038V13.4506H18.9716C18.7602 13.4506 18.5488 13.662 18.5488 14.0848V15.0008H20.8038V17.2558H18.5488V22.3998H20.9447C22.1426 22.3998 23.1996 21.3428 23.1996 20.1449V11.0547Z" fill="white"/>
</svg>
