<svg width="33" height="32" viewBox="0 0 33 32" fill="none" xmlns="http://www.w3.org/2000/svg">
<circle cx="16.0306" cy="16" r="16" fill="#5684BC"/>
<path d="M23.2307 11.0549C23.2307 9.857 22.1737 8.8 20.9758 8.8H11.8857C10.6877 8.8 9.63074 9.857 9.63074 11.0549V20.1451C9.63074 21.343 10.6877 22.4 11.8857 22.4H16.466V17.256H14.7748V15.001H16.466V14.085C16.466 12.5347 17.5934 11.1959 19.0028 11.1959H20.8349V13.4508H19.0028C18.7914 13.4508 18.58 13.6622 18.58 14.085V15.001H20.8349V17.256H18.58V22.4H20.9758C22.1737 22.4 23.2307 21.343 23.2307 20.1451V11.0549Z" fill="white"/>
</svg>
