<svg width="24" height="25" viewBox="0 0 24 25" fill="none" xmlns="http://www.w3.org/2000/svg">
<path d="M19 17.5H5C3.897 17.5 3 18.397 3 19.5C3 20.603 3.897 21.5 5 21.5H19C20.103 21.5 21 20.603 21 19.5C21 18.397 20.103 17.5 19 17.5Z" fill="white"/>
<path d="M19 10.5H5C3.897 10.5 3 11.397 3 12.5C3 13.603 3.897 14.5 5 14.5H19C20.103 14.5 21 13.603 21 12.5C21 11.397 20.103 10.5 19 10.5Z" fill="white"/>
<path d="M19 3.5H5C3.897 3.5 3 4.397 3 5.5C3 6.603 3.897 7.5 5 7.5H19C20.103 7.5 21 6.603 21 5.5C21 4.397 20.103 3.5 19 3.5Z" fill="white"/>
</svg>
