<svg width="32" height="32" viewBox="0 0 32 32" fill="none" xmlns="http://www.w3.org/2000/svg">
<circle cx="16" cy="16" r="16" fill="#9ED0B9"/>
<path d="M21.2642 9.6001H11.535C10.4365 9.6001 9.59961 10.437 9.59961 11.5355V21.2647C9.59961 22.3632 10.4365 23.2001 11.535 23.2001H21.2642C22.3627 23.2001 23.1996 22.3632 23.1996 21.2647V11.5355C23.1996 10.437 22.3627 9.6001 21.2642 9.6001ZM16.3996 20.4801C18.6488 20.4801 20.4796 18.7016 20.4796 16.557C20.4796 16.1909 20.4273 15.7724 20.3227 15.4586H21.4735V21.0032C21.4735 21.2647 21.2642 21.5263 20.9504 21.5263H11.8488C11.5873 21.5263 11.3258 21.317 11.3258 21.0032V15.4063H12.5288C12.4242 15.7724 12.3719 16.1386 12.3719 16.5047C12.3196 18.7016 14.1504 20.4801 16.3996 20.4801ZM16.3996 18.9109C14.935 18.9109 13.7842 17.7601 13.7842 16.3478C13.7842 14.9355 14.935 13.7847 16.3996 13.7847C17.8642 13.7847 19.015 14.9355 19.015 16.3478C19.015 17.8124 17.8642 18.9109 16.3996 18.9109ZM21.4212 13.3139C21.4212 13.6278 21.1596 13.8893 20.8458 13.8893H19.3811C19.0673 13.8893 18.8058 13.6278 18.8058 13.3139V11.9016C18.8058 11.5878 19.0673 11.3263 19.3811 11.3263H20.8458C21.1596 11.3263 21.4212 11.5878 21.4212 11.9016V13.3139Z" fill="white"/>
</svg>
