<svg width="33" height="32" viewBox="0 0 33 32" fill="none" xmlns="http://www.w3.org/2000/svg">
<circle cx="16.0306" cy="16" r="16" fill="#5684BC"/>
<path d="M21.2954 9.60001H11.5661C10.4677 9.60001 9.63074 10.4369 9.63074 11.5354V21.2646C9.63074 22.3631 10.4677 23.2 11.5661 23.2H21.2954C22.3938 23.2 23.2307 22.3631 23.2307 21.2646V11.5354C23.2307 10.4369 22.3938 9.60001 21.2954 9.60001ZM16.4307 20.48C18.68 20.48 20.5107 18.7015 20.5107 16.5569C20.5107 16.1908 20.4584 15.7723 20.3538 15.4585H21.5046V21.0031C21.5046 21.2646 21.2954 21.5262 20.9815 21.5262H11.88C11.6184 21.5262 11.3569 21.3169 11.3569 21.0031V15.4062H12.56C12.4554 15.7723 12.403 16.1385 12.403 16.5046C12.3507 18.7015 14.1815 20.48 16.4307 20.48ZM16.4307 18.9108C14.9661 18.9108 13.8154 17.76 13.8154 16.3477C13.8154 14.9354 14.9661 13.7846 16.4307 13.7846C17.8954 13.7846 19.0461 14.9354 19.0461 16.3477C19.0461 17.8123 17.8954 18.9108 16.4307 18.9108ZM21.4523 13.3139C21.4523 13.6277 21.1907 13.8892 20.8769 13.8892H19.4123C19.0984 13.8892 18.8369 13.6277 18.8369 13.3139V11.9015C18.8369 11.5877 19.0984 11.3262 19.4123 11.3262H20.8769C21.1907 11.3262 21.4523 11.5877 21.4523 11.9015V13.3139Z" fill="white"/>
</svg>
