<svg width="17" height="20" viewBox="0 0 17 20" fill="none" xmlns="http://www.w3.org/2000/svg">
<path d="M15.8789 8.36364C15.8789 14.0909 8.51525 19 8.51525 19C8.51525 19 1.15161 14.0909 1.15161 8.36364C1.15161 6.41068 1.92742 4.53771 3.30837 3.15676C4.68932 1.77581 6.56229 1 8.51525 1C10.4682 1 12.3412 1.77581 13.7221 3.15676C15.1031 4.53771 15.8789 6.41068 15.8789 8.36364Z" stroke="#7E8288" stroke-width="2" stroke-linecap="round" stroke-linejoin="round"/>
<path d="M8.51525 10.8182C9.87086 10.8182 10.9698 9.71924 10.9698 8.36364C10.9698 7.00803 9.87086 5.90909 8.51525 5.90909C7.15964 5.90909 6.0607 7.00803 6.0607 8.36364C6.0607 9.71924 7.15964 10.8182 8.51525 10.8182Z" stroke="#7E8288" stroke-width="2" stroke-linecap="round" stroke-linejoin="round"/>
</svg>
