<svg width="18" height="18" viewBox="0 0 18 18" fill="none" xmlns="http://www.w3.org/2000/svg">
<g id="2305589_address_direction_location_map_navigation_icon 1">
<path id="Vector" d="M7.03125 3.09375L2.8125 4.21875V14.9062L7.03125 13.7812V3.09375Z" stroke="white" stroke-linecap="round" stroke-linejoin="round"/>
<path id="Vector_2" d="M9.61031 3.79688L7.03125 3.09375V13.7812L11.25 14.9062V7.43625" stroke="white" stroke-linecap="round" stroke-linejoin="round"/>
<path id="Vector_3" d="M11.25 7.43652V14.9065L15.4688 13.7815V7.43652" stroke="white" stroke-linecap="round" stroke-linejoin="round"/>
<path id="Vector_4" d="M11.5247 2.3204C12.0104 1.83453 12.6692 1.56151 13.3562 1.56139C14.0432 1.56127 14.7021 1.83406 15.188 2.31976C15.4298 2.55996 15.6219 2.84555 15.7532 3.16013C15.8845 3.47472 15.9523 3.81212 15.953 4.15299C15.9536 4.49387 15.8869 4.83151 15.7568 5.14657C15.6266 5.46163 15.4356 5.7479 15.1946 5.98898L13.3633 7.82092L11.5274 5.98564C11.2864 5.74524 11.0951 5.4597 10.9645 5.14534C10.8339 4.83098 10.7666 4.49396 10.7664 4.15356C10.7661 3.81316 10.833 3.47605 10.9631 3.1615C11.0932 2.84695 11.2841 2.56114 11.5247 2.3204V2.3204Z" stroke="white" stroke-linecap="round" stroke-linejoin="round"/>
<path id="Vector_5" d="M13.3594 5.3323C14.0242 5.3323 14.5631 4.79337 14.5631 4.12855C14.5631 3.46374 14.0242 2.9248 13.3594 2.9248C12.6946 2.9248 12.1556 3.46374 12.1556 4.12855C12.1556 4.79337 12.6946 5.3323 13.3594 5.3323Z" stroke="white" stroke-linecap="round" stroke-linejoin="round"/>
</g>
</svg>
