<svg xmlns="http://www.w3.org/2000/svg">
	<symbol id="check" viewBox="0 0 24 24" fill="none">
		<path d="M10 18C9.5 18 9 17.8 8.6 17.4L4.6 13.4C3.8 12.6 3.8 11.4 4.6 10.6C5.4 9.8 6.7 9.8 7.4 10.6L10 13.2L16.6 6.6C17.4 5.8 18.6 5.8 19.4 6.6C20.2 7.4 20.2 8.6 19.4 9.4L11.4 17.4C11 17.8 10.5 18 10 18Z" fill="currentColor"/>
	</symbol>
	<symbol id="attention" viewBox="0 0 34 34" fill="none">
		<circle cx="17" cy="17" r="17" fill="currentColor"/>
		<path d="M18.4318 11.3636L18.1364 19.3636H15.5455L15.25 11.3636H18.4318ZM16.8409 23.1818C16.4015 23.1818 16.0246 23.0284 15.7102 22.7216C15.3996 22.411 15.2462 22.0341 15.25 21.5909C15.2462 21.1591 15.3996 20.7898 15.7102 20.483C16.0246 20.1761 16.4015 20.0227 16.8409 20.0227C17.2576 20.0227 17.625 20.1761 17.9432 20.483C18.2652 20.7898 18.428 21.1591 18.4318 21.5909C18.428 21.8864 18.3504 22.1553 18.1989 22.3977C18.0511 22.6364 17.858 22.8277 17.6193 22.9716C17.3807 23.1117 17.1212 23.1818 16.8409 23.1818Z" fill="white"/>
	</symbol>
</svg>