<svg width="32" height="32" viewBox="0 0 32 32" fill="none" xmlns="http://www.w3.org/2000/svg">
<circle cx="16" cy="16" r="16" fill="#9ED0B9"/>
<path d="M7.48076 16.2994L11.1592 17.671L12.5932 22.2847C12.6556 22.5964 13.0296 22.6587 13.279 22.4717L15.3365 20.7883C15.5235 20.6013 15.8352 20.6013 16.0846 20.7883L19.7631 23.4692C20.0125 23.6563 20.3866 23.5316 20.4489 23.2199L23.1922 10.127C23.2545 9.81529 22.9428 9.50356 22.6311 9.62825L7.48076 15.4889C7.10668 15.6135 7.10668 16.1747 7.48076 16.2994ZM12.4062 16.9852L19.6384 12.5586C19.7631 12.4962 19.8878 12.6832 19.7631 12.7456L13.8401 18.2945C13.6531 18.4815 13.4661 18.7309 13.4661 19.0426L13.279 20.5389C13.279 20.726 12.9673 20.7883 12.9049 20.5389L12.1568 17.7957C11.9697 17.484 12.0944 17.1099 12.4062 16.9852Z" fill="white"/>
</svg>
