<svg width="33" height="32" viewBox="0 0 33 32" fill="none" xmlns="http://www.w3.org/2000/svg">
<circle cx="16.0306" cy="16" r="16" fill="#5684BC"/>
<path d="M7.51115 16.2993L11.1896 17.6709L12.6236 22.2846C12.6859 22.5963 13.06 22.6586 13.3094 22.4716L15.3669 20.7882C15.5539 20.6012 15.8656 20.6012 16.115 20.7882L19.7935 23.4692C20.0429 23.6562 20.417 23.5315 20.4793 23.2198L23.2226 10.1269C23.2849 9.8152 22.9732 9.50346 22.6614 9.62816L7.51115 15.4888C7.13707 15.6135 7.13707 16.1746 7.51115 16.2993ZM12.4366 16.9851L19.6688 12.5585C19.7935 12.4961 19.9182 12.6832 19.7935 12.7455L13.8705 18.2944C13.6835 18.4814 13.4965 18.7308 13.4965 19.0425L13.3094 20.5389C13.3094 20.7259 12.9977 20.7882 12.9353 20.5389L12.1872 17.7956C12.0001 17.4839 12.1248 17.1098 12.4366 16.9851Z" fill="white"/>
</svg>
