<svg width="32" height="32" viewBox="0 0 32 32" fill="none" xmlns="http://www.w3.org/2000/svg">
<circle cx="16" cy="16" r="16" fill="#9ED0B9"/>
<path d="M22.3415 9.65019C20.761 8.07519 18.6537 7.2002 16.4293 7.2002C11.8049 7.2002 8.05854 10.9335 8.05854 15.5419C8.05854 17.0002 8.46829 18.4585 9.17073 19.6835L8 24.0002L12.4488 22.8335C13.6781 23.4752 15.0244 23.8252 16.4293 23.8252C21.0537 23.8252 24.8 20.0919 24.8 15.4835C24.7415 13.3252 23.9219 11.2252 22.3415 9.65019ZM20.4683 18.5169C20.2927 18.9835 19.4732 19.4502 19.0634 19.5085C18.7122 19.5669 18.2439 19.5669 17.7756 19.4502C17.4829 19.3335 17.0732 19.2169 16.6049 18.9835C14.4976 18.1085 13.1512 16.0085 13.0341 15.8335C12.9171 15.7169 12.1561 14.7252 12.1561 13.6752C12.1561 12.6252 12.6829 12.1585 12.8585 11.9252C13.0341 11.6919 13.2683 11.6919 13.4439 11.6919C13.561 11.6919 13.7366 11.6919 13.8537 11.6919C13.9707 11.6919 14.1463 11.6335 14.322 12.0419C14.4976 12.4502 14.9073 13.5002 14.9659 13.5585C15.0244 13.6752 15.0244 13.7919 14.9659 13.9085C14.9073 14.0252 14.8488 14.1419 14.7317 14.2585C14.6146 14.3752 14.4976 14.5502 14.439 14.6085C14.3219 14.7252 14.2049 14.8419 14.322 15.0169C14.439 15.2502 14.8488 15.8919 15.4927 16.4752C16.3122 17.1752 16.9561 17.4085 17.1902 17.5252C17.4244 17.6419 17.5415 17.5835 17.6585 17.4669C17.7756 17.3502 18.1854 16.8835 18.3024 16.6502C18.4195 16.4169 18.5951 16.4752 18.7707 16.5335C18.9463 16.5919 20 17.1169 20.1756 17.2335C20.4098 17.3502 20.5268 17.4085 20.5854 17.4669C20.6439 17.6419 20.6439 18.0502 20.4683 18.5169Z" fill="white"/>
</svg>
