<svg width="33" height="32" viewBox="0 0 33 32" fill="none" xmlns="http://www.w3.org/2000/svg">
<circle cx="16.0306" cy="16" r="16" fill="#5684BC"/>
<path d="M22.3721 9.65C20.7916 8.075 18.6843 7.2 16.4599 7.2C11.8355 7.2 8.08918 10.9333 8.08918 15.5417C8.08918 17 8.49893 18.4583 9.20137 19.6833L8.03064 24L12.4794 22.8333C13.7087 23.475 15.055 23.825 16.4599 23.825C21.0843 23.825 24.8306 20.0917 24.8306 15.4833C24.7721 13.325 23.9526 11.225 22.3721 9.65ZM20.4989 18.5167C20.3233 18.9833 19.5038 19.45 19.0941 19.5083C18.7428 19.5667 18.2745 19.5667 17.8062 19.45C17.5136 19.3333 17.1038 19.2167 16.6355 18.9833C14.5282 18.1083 13.1819 16.0083 13.0648 15.8333C12.9477 15.7167 12.1867 14.725 12.1867 13.675C12.1867 12.625 12.7136 12.1583 12.8892 11.925C13.0648 11.6917 13.2989 11.6917 13.4745 11.6917C13.5916 11.6917 13.7672 11.6917 13.8843 11.6917C14.0014 11.6917 14.177 11.6333 14.3526 12.0417C14.5282 12.45 14.938 13.5 14.9965 13.5583C15.055 13.675 15.055 13.7917 14.9965 13.9083C14.938 14.025 14.8794 14.1417 14.7623 14.2583C14.6453 14.375 14.5282 14.55 14.4697 14.6083C14.3526 14.725 14.2355 14.8417 14.3526 15.0167C14.4697 15.25 14.8794 15.8917 15.5233 16.475C16.3428 17.175 16.9867 17.4083 17.2209 17.525C17.455 17.6417 17.5721 17.5833 17.6892 17.4667C17.8062 17.35 18.216 16.8833 18.3331 16.65C18.4502 16.4167 18.6258 16.475 18.8014 16.5333C18.977 16.5917 20.0306 17.1167 20.2062 17.2333C20.4404 17.35 20.5575 17.4083 20.616 17.4667C20.6745 17.6417 20.6745 18.05 20.4989 18.5167Z" fill="white"/>
</svg>
