<svg width="101" height="50" viewBox="0 0 101 50" fill="none" xmlns="http://www.w3.org/2000/svg">
<rect width="101" height="50" fill="#7E8288"/>
<path d="M23 32.7443V18.1989H26.0753V30.2088H32.3111V32.7443H23Z" fill="white"/>
<path d="M47.1477 25.4716C47.1477 27.0578 46.8471 28.4072 46.2457 29.5199C45.6491 30.6326 44.8348 31.4825 43.8026 32.0696C42.7751 32.652 41.6198 32.9432 40.3366 32.9432C39.044 32.9432 37.884 32.6496 36.8565 32.0625C35.8291 31.4754 35.017 30.6255 34.4205 29.5128C33.8239 28.4001 33.5256 27.053 33.5256 25.4716C33.5256 23.8854 33.8239 22.536 34.4205 21.4233C35.017 20.3106 35.8291 19.4631 36.8565 18.8807C37.884 18.2936 39.044 18 40.3366 18C41.6198 18 42.7751 18.2936 43.8026 18.8807C44.8348 19.4631 45.6491 20.3106 46.2457 21.4233C46.8471 22.536 47.1477 23.8854 47.1477 25.4716ZM44.0298 25.4716C44.0298 24.4441 43.8759 23.5777 43.5682 22.8722C43.2652 22.1667 42.8366 21.6316 42.2827 21.267C41.7287 20.9025 41.08 20.7202 40.3366 20.7202C39.5933 20.7202 38.9446 20.9025 38.3906 21.267C37.8366 21.6316 37.4058 22.1667 37.098 22.8722C36.795 23.5777 36.6435 24.4441 36.6435 25.4716C36.6435 26.4991 36.795 27.3655 37.098 28.071C37.4058 28.7765 37.8366 29.3116 38.3906 29.6761C38.9446 30.0407 39.5933 30.223 40.3366 30.223C41.08 30.223 41.7287 30.0407 42.2827 29.6761C42.8366 29.3116 43.2652 28.7765 43.5682 28.071C43.8759 27.3655 44.0298 26.4991 44.0298 25.4716Z" fill="white"/>
<path d="M59.0707 22.9006C58.9712 22.5549 58.8316 22.2495 58.6516 21.9844C58.4717 21.7145 58.2515 21.4872 57.9911 21.3026C57.7354 21.1132 57.4419 20.9688 57.1104 20.8693C56.7837 20.7699 56.4215 20.7202 56.0238 20.7202C55.2804 20.7202 54.627 20.9048 54.0636 21.2741C53.5049 21.6435 53.0692 22.1809 52.7567 22.8864C52.4442 23.5871 52.288 24.4441 52.288 25.4574C52.288 26.4706 52.4419 27.3324 52.7496 28.0426C53.0574 28.7528 53.493 29.295 54.0565 29.669C54.6199 30.0384 55.2852 30.223 56.0522 30.223C56.7482 30.223 57.3424 30.0999 57.8349 29.8537C58.332 29.6027 58.7108 29.25 58.9712 28.7955C59.2364 28.3409 59.369 27.8035 59.369 27.1832L59.994 27.2756H56.244V24.9602H62.3306V26.7926C62.3306 28.071 62.0607 29.1695 61.521 30.0881C60.9812 31.0019 60.2378 31.7074 59.2908 32.2045C58.3439 32.697 57.2596 32.9432 56.038 32.9432C54.6744 32.9432 53.4764 32.6425 52.4442 32.0412C51.412 31.4351 50.6071 30.5758 50.0295 29.4631C49.4566 28.3456 49.1701 27.0199 49.1701 25.4858C49.1701 24.3068 49.3406 23.2557 49.6815 22.3324C50.0271 21.4044 50.5101 20.6184 51.1303 19.9744C51.7506 19.3305 52.4727 18.8404 53.2965 18.5043C54.1204 18.1681 55.0129 18 55.9741 18C56.7979 18 57.565 18.1207 58.2752 18.3622C58.9854 18.599 59.6152 18.9351 60.1644 19.3707C60.7184 19.8063 61.1706 20.3248 61.521 20.9261C61.8713 21.5227 62.0962 22.1809 62.1957 22.9006H59.0707Z" fill="white"/>
<path d="M78.0071 25.4716C78.0071 27.0578 77.7064 28.4072 77.1051 29.5199C76.5085 30.6326 75.6941 31.4825 74.6619 32.0696C73.6345 32.652 72.4792 32.9432 71.196 32.9432C69.9034 32.9432 68.7434 32.6496 67.7159 32.0625C66.6884 31.4754 65.8764 30.6255 65.2798 29.5128C64.6832 28.4001 64.3849 27.053 64.3849 25.4716C64.3849 23.8854 64.6832 22.536 65.2798 21.4233C65.8764 20.3106 66.6884 19.4631 67.7159 18.8807C68.7434 18.2936 69.9034 18 71.196 18C72.4792 18 73.6345 18.2936 74.6619 18.8807C75.6941 19.4631 76.5085 20.3106 77.1051 21.4233C77.7064 22.536 78.0071 23.8854 78.0071 25.4716ZM74.8892 25.4716C74.8892 24.4441 74.7353 23.5777 74.4276 22.8722C74.1245 22.1667 73.696 21.6316 73.142 21.267C72.5881 20.9025 71.9394 20.7202 71.196 20.7202C70.4527 20.7202 69.804 20.9025 69.25 21.267C68.696 21.6316 68.2652 22.1667 67.9574 22.8722C67.6544 23.5777 67.5028 24.4441 67.5028 25.4716C67.5028 26.4991 67.6544 27.3655 67.9574 28.071C68.2652 28.7765 68.696 29.3116 69.25 29.6761C69.804 30.0407 70.4527 30.223 71.196 30.223C71.9394 30.223 72.5881 30.0407 73.142 29.6761C73.696 29.3116 74.1245 28.7765 74.4276 28.071C74.7353 27.3655 74.8892 26.4991 74.8892 25.4716Z" fill="white"/>
</svg>
