<svg width="138" height="65" viewBox="0 0 138 65" fill="none" xmlns="http://www.w3.org/2000/svg">
<path d="M1.54048 41.5V24.0455H5.23082V38.4574H12.7138V41.5H1.54048ZM30.5178 32.7727C30.5178 34.6761 30.157 36.2955 29.4354 37.6307C28.7195 38.9659 27.7422 39.9858 26.5036 40.6903C25.2706 41.3892 23.8842 41.7386 22.3445 41.7386C20.7933 41.7386 19.4013 41.3864 18.1683 40.6818C16.9354 39.9773 15.9609 38.9574 15.245 37.6222C14.5291 36.2869 14.1712 34.6705 14.1712 32.7727C14.1712 30.8693 14.5291 29.25 15.245 27.9148C15.9609 26.5795 16.9354 25.5625 18.1683 24.8636C19.4013 24.1591 20.7933 23.8068 22.3445 23.8068C23.8842 23.8068 25.2706 24.1591 26.5036 24.8636C27.7422 25.5625 28.7195 26.5795 29.4354 27.9148C30.157 29.25 30.5178 30.8693 30.5178 32.7727ZM26.7763 32.7727C26.7763 31.5398 26.5916 30.5 26.2223 29.6534C25.8587 28.8068 25.3445 28.1648 24.6797 27.7273C24.0149 27.2898 23.2365 27.071 22.3445 27.071C21.4524 27.071 20.674 27.2898 20.0092 27.7273C19.3445 28.1648 18.8274 28.8068 18.4581 29.6534C18.0945 30.5 17.9126 31.5398 17.9126 32.7727C17.9126 34.0057 18.0945 35.0455 18.4581 35.892C18.8274 36.7386 19.3445 37.3807 20.0092 37.8182C20.674 38.2557 21.4524 38.4744 22.3445 38.4744C23.2365 38.4744 24.0149 38.2557 24.6797 37.8182C25.3445 37.3807 25.8587 36.7386 26.2223 35.892C26.5916 35.0455 26.7763 34.0057 26.7763 32.7727ZM44.8253 29.6875C44.706 29.2727 44.5384 28.9062 44.3224 28.5881C44.1065 28.2642 43.8423 27.9915 43.5298 27.7699C43.223 27.5426 42.8707 27.3693 42.473 27.25C42.081 27.1307 41.6463 27.071 41.169 27.071C40.277 27.071 39.4929 27.2926 38.8168 27.7358C38.1463 28.179 37.6236 28.8239 37.2486 29.6705C36.8736 30.5114 36.6861 31.5398 36.6861 32.7557C36.6861 33.9716 36.8707 35.0057 37.2401 35.858C37.6094 36.7102 38.1321 37.3608 38.8082 37.8097C39.4844 38.2528 40.2827 38.4744 41.2031 38.4744C42.0384 38.4744 42.7514 38.3267 43.3423 38.0312C43.9389 37.7301 44.3935 37.3068 44.706 36.7614C45.0241 36.2159 45.1832 35.571 45.1832 34.8267L45.9332 34.9375H41.4332V32.1591H48.7372V34.358C48.7372 35.892 48.4134 37.2102 47.7656 38.3125C47.1179 39.4091 46.2259 40.2557 45.0895 40.8523C43.9531 41.4432 42.652 41.7386 41.1861 41.7386C39.5497 41.7386 38.1122 41.3778 36.8736 40.6562C35.6349 39.929 34.669 38.8977 33.9759 37.5625C33.2884 36.2216 32.9446 34.6307 32.9446 32.7898C32.9446 31.375 33.1491 30.1136 33.5582 29.0057C33.973 27.892 34.5526 26.9489 35.2969 26.1761C36.0412 25.4034 36.9077 24.8153 37.8963 24.4119C38.8849 24.0085 39.956 23.8068 41.1094 23.8068C42.098 23.8068 43.0185 23.9517 43.8707 24.2415C44.723 24.5256 45.4787 24.929 46.1378 25.4517C46.8026 25.9744 47.3452 26.5966 47.7656 27.3182C48.1861 28.0341 48.456 28.8239 48.5753 29.6875H44.8253ZM67.549 32.7727C67.549 34.6761 67.1882 36.2955 66.4666 37.6307C65.7507 38.9659 64.7734 39.9858 63.5348 40.6903C62.3018 41.3892 60.9155 41.7386 59.3757 41.7386C57.8246 41.7386 56.4325 41.3864 55.1996 40.6818C53.9666 39.9773 52.9922 38.9574 52.2763 37.6222C51.5604 36.2869 51.2024 34.6705 51.2024 32.7727C51.2024 30.8693 51.5604 29.25 52.2763 27.9148C52.9922 26.5795 53.9666 25.5625 55.1996 24.8636C56.4325 24.1591 57.8246 23.8068 59.3757 23.8068C60.9155 23.8068 62.3018 24.1591 63.5348 24.8636C64.7734 25.5625 65.7507 26.5795 66.4666 27.9148C67.1882 29.25 67.549 30.8693 67.549 32.7727ZM63.8075 32.7727C63.8075 31.5398 63.6229 30.5 63.2536 29.6534C62.8899 28.8068 62.3757 28.1648 61.7109 27.7273C61.0462 27.2898 60.2678 27.071 59.3757 27.071C58.4837 27.071 57.7053 27.2898 57.0405 27.7273C56.3757 28.1648 55.8587 28.8068 55.4893 29.6534C55.1257 30.5 54.9439 31.5398 54.9439 32.7727C54.9439 34.0057 55.1257 35.0455 55.4893 35.892C55.8587 36.7386 56.3757 37.3807 57.0405 37.8182C57.7053 38.2557 58.4837 38.4744 59.3757 38.4744C60.2678 38.4744 61.0462 38.2557 61.7109 37.8182C62.3757 37.3807 62.8899 36.7386 63.2536 35.892C63.6229 35.0455 63.8075 34.0057 63.8075 32.7727ZM75.1726 27.0881V24.0455H89.5078V27.0881H84.1641V41.5H80.5163V27.0881H75.1726ZM90.8459 24.0455H94.9794L98.9595 31.5625H99.13L103.11 24.0455H107.244L100.877 35.3295V41.5H97.2124V35.3295L90.8459 24.0455ZM109.259 41.5V24.0455H116.146C117.469 24.0455 118.597 24.2983 119.529 24.804C120.461 25.304 121.171 26 121.66 26.892C122.154 27.7784 122.401 28.8011 122.401 29.9602C122.401 31.1193 122.151 32.142 121.651 33.0284C121.151 33.9148 120.427 34.6051 119.478 35.0994C118.535 35.5937 117.393 35.8409 116.052 35.8409H111.663V32.8835H115.455C116.165 32.8835 116.751 32.7614 117.211 32.517C117.677 32.267 118.023 31.9233 118.251 31.4858C118.484 31.0426 118.6 30.5341 118.6 29.9602C118.6 29.3807 118.484 28.875 118.251 28.4432C118.023 28.0057 117.677 27.6676 117.211 27.429C116.745 27.1847 116.154 27.0625 115.438 27.0625H112.95V41.5H109.259ZM124.798 41.5V24.0455H136.56V27.0881H128.489V31.2472H135.955V34.2898H128.489V38.4574H136.594V41.5H124.798Z" fill="white"/>
<path fill-rule="evenodd" clip-rule="evenodd" d="M48 6.5H89.9759V13.6084H95.9759V6.5V0.5H89.9759H48H42V6.5V13.6084H48V6.5ZM48 49.8494H42V58.5V64.5H48H89.9759H95.9759V58.5V49.8494H89.9759V58.5H48V49.8494Z" fill="#9ED0B9"/>
</svg>
